{"title":"Kings Of The Evening 2010 Limited DVDRip Xvid LKRG","uid":6003908,"size":752671089,"categoryP":"video","categoryS":"movies","magnet":"?xt=urn:btih:7e8c11f0b42cc3c42fa7787453b59c77f271d783&amp;dn=Kings+Of+The+Evening+2010+Limited+DVDRip+Xvid+LKRG&amp;tr=udp%3A%2F%2Ftracker.openbittorrent.com%3A80&amp;tr=udp%3A%2F%2Fopen.demonii.com%3A1337&amp;tr=udp%3A%2F%2Ftracker.coppersurfer.tk%3A6969&amp;tr=udp%3A%2F%2Fexodus.desync.com%3A6969","seeders":1,"leechers":0,"uploader":"neon","files":-1,"time":1291263394,"description":"Homer Hobbs, home after two years in jail, discovers that life on the outside can be crueler than the back-breaking injustice of the chain gang\n\nCast: Tyson Beckford ...\nHomer Hobbs\nLynn Whitfield ...\nGracie\nGlynn Turman ...\nClarence Brown\nLinara Washington ...\nLucy Waters\nReginald T. Dorsey ...\nBenny Potter\nJames Russo ...\nRamsey\n\n--------------------------------------------------------------------------------\nFormat;Avi\n\nFile Size:734mb\n\nVideo: ID : 0\nFormat : MPEG-4 Visual\nFormat profile : Advanced Simple@L5\nFormat settings, BVOP : Yes\nFormat settings, QPel : No\nFormat settings, GMC : No warppoints\nFormat settings, Matrix : Default (H.263)\nMuxing mode : Packed bitstream\nCodec ID : XVID\nCodec ID/Hint : XviD\nDuration : 1h 39mn\nBit rate : 826 Kbps\nWidth : 720 pixels\nHeight : 400 pixels\nDisplay aspect ratio : 16:9\nFrame rate : 29.970 fps\nColor space : YUV\nChroma subsampling : 4:2:0\nBit depth : 8 bits\nScan type : Progressive\nBits/(Pixel*Frame) : 0.096\nStream size : 589 MiB (80%)\nWriting library : XviD 1.2.1 (UTC 2008-12-04)\n\n\nAudio: ID : 1\nFormat : AC-3\nFormat/Info : Audio Coding 3\nMode extension : CM (complete main)\nCodec ID : 2000\nDuration : 1h 39mn\nBit rate mode : Constant\nBit rate : 192 Kbps\nChannel(s) : 2 channels\nChannel positions : Front: L R\nSampling rate : 48.0 KHz\nBit depth : 16 bits\nStream size : 137 MiB (19%)\nAlignment : Aligned on interleaves\nInterleave, duration : 33 ms (1.00 video frame)\nInterleave, preload duration : 512 ms\n\n\nDuration:1:39\n\nRelease Date:2010\n\nLanguage:English \n--------------------------------------------------------------------------------\n","torrent":{"xt":"urn:btih:7e8c11f0b42cc3c42fa7787453b59c77f271d783","amp;dn":"Kings+Of+The+Evening+2010+Limited+DVDRip+Xvid+LKRG","amp;tr":["udp%3A%2F%2Ftracker.openbittorrent.com%3A80","udp%3A%2F%2Fopen.demonii.com%3A1337","udp%3A%2F%2Ftracker.coppersurfer.tk%3A6969","udp%3A%2F%2Fexodus.desync.com%3A6969"],"infoHash":"7e8c11f0b42cc3c42fa7787453b59c77f271d783","infoHashBuffer":{"type":"Buffer","data":[126,140,17,240,180,44,195,196,47,167,120,116,83,181,156,119,242,113,215,131]},"announce":[],"urlList":[]}}